<svg width="221" height="421" viewBox="0 0 221 421" fill="none" xmlns="http://www.w3.org/2000/svg">
<path d="M0 371.825C0 166.472 166.472 0 371.825 0C577.178 0 743.65 166.472 743.65 371.825C743.65 577.178 577.178 743.65 371.825 743.65C166.472 743.65 0 577.178 0 371.825Z" fill="white" fill-opacity="0.05"/>
<path d="M101.65 370.755C101.65 221.541 222.612 100.58 371.825 100.58C521.039 100.58 642 221.541 642 370.755C642 519.969 521.039 640.93 371.825 640.93C222.612 640.93 101.65 519.969 101.65 370.755Z" fill="white" fill-opacity="0.05"/>
<path d="M192.6 369.685C192.6 272.474 271.404 193.67 368.615 193.67C465.825 193.67 544.63 272.474 544.63 369.685C544.63 466.896 465.825 545.7 368.615 545.7C271.404 545.7 192.6 466.896 192.6 369.685Z" fill="white" fill-opacity="0.1"/>
</svg>
