<svg width="374" height="55" viewBox="0 0 374 55" fill="none" xmlns="http://www.w3.org/2000/svg">
<path d="M132.859 18.646C133.236 19.2251 133.41 19.8332 133.41 20.4992C133.41 21.3099 133.178 22.0338 132.685 22.584C132.193 23.1631 131.555 23.4527 130.743 23.4527C130.048 23.4527 129.468 23.221 128.976 22.7867C128.483 22.3523 128.251 21.7732 128.251 21.0204C128.251 20.0069 128.773 19.1382 129.845 18.4722C129.642 18.1827 129.294 18.0089 128.86 18.0089C127.613 18.0089 126.512 18.4722 125.527 19.4278C124.541 20.3833 123.759 21.5416 123.179 22.9315C122.599 24.3214 122.309 25.6244 122.309 26.8406V36.7725C122.309 38.2204 122.715 39.2338 123.556 39.784C124.367 40.3342 125.613 40.6237 127.294 40.6237V41.6082C123.44 41.4924 121.034 41.4345 120.078 41.4345C119.237 41.4345 117.411 41.4924 114.542 41.6082V40.6237C115.411 40.6237 116.136 40.5368 116.629 40.3342C117.15 40.1315 117.498 39.784 117.759 39.3207C117.991 38.8284 118.107 38.1624 118.107 37.2938V22.584C118.107 21.1362 117.846 20.0938 117.324 19.4278C116.803 18.7618 115.875 18.4433 114.542 18.4433V17.4588C115.527 17.5456 116.484 17.6035 117.44 17.6035C119.411 17.6035 121.063 17.4008 122.309 16.9665V22.8156C122.657 21.8311 123.179 20.9045 123.816 19.9779C124.483 19.0513 125.266 18.2985 126.193 17.7194C127.121 17.1113 128.077 16.8217 129.091 16.8217C129.903 16.8217 130.657 16.9955 131.294 17.314C131.961 17.6325 132.482 18.0668 132.859 18.646ZM149.728 17.4588V18.3853C150.945 18.4722 151.843 18.6749 152.394 19.0224C152.945 19.3699 153.234 19.92 153.234 20.6439C153.234 21.1651 153.061 21.889 152.742 22.7867L147.554 36.3672L141.902 22.3523C141.496 21.3678 141.293 20.615 141.293 20.0359C141.293 19.5436 141.438 19.1672 141.728 18.9355C142.018 18.7039 142.366 18.5591 142.801 18.5012C143.235 18.4433 143.815 18.4143 144.597 18.4143V17.4588C141.873 17.6614 139.844 17.7483 138.511 17.7483C136.917 17.7483 135.381 17.6614 133.903 17.4588V18.4433C134.424 18.4433 134.975 18.617 135.497 18.9355C136.018 19.283 136.54 19.9779 137.091 21.0493L145.612 41.4924L143.931 45.7779C143.003 48.2102 141.67 49.4264 139.931 49.4264C139.815 49.4264 139.728 49.3974 139.641 49.3685C140.482 48.9052 140.888 48.1813 140.888 47.2547C140.888 46.5597 140.656 46.0096 140.221 45.6331C139.757 45.2567 139.207 45.054 138.511 45.054C137.728 45.054 137.12 45.2857 136.685 45.72C136.25 46.1833 136.018 46.7624 136.018 47.5153C136.018 48.4129 136.308 49.0789 136.917 49.6001C137.526 50.0924 138.279 50.353 139.207 50.353C140.772 50.353 141.989 49.9476 142.887 49.1368C143.641 48.4708 144.308 47.3705 144.887 45.8358L146.481 41.753L154.191 21.6864C154.626 20.5281 155.089 19.7173 155.553 19.2251C156.046 18.7328 156.597 18.4433 157.234 18.3853V17.4588C156.249 17.5456 155.06 17.6035 153.669 17.6035C152.684 17.5746 151.38 17.5456 149.728 17.4588ZM181.58 22.1497C182.334 23.916 182.71 26.0008 182.71 28.4332C182.71 30.8365 182.334 33.0661 181.551 35.18C180.769 37.2938 179.609 38.9732 177.986 40.2762C176.363 41.5793 174.363 42.2453 171.958 42.2453C170.769 42.2453 169.697 42.0136 168.712 41.5503C167.755 41.087 167.002 40.4789 166.451 39.6971V45.6911C166.451 46.9651 166.828 47.8338 167.581 48.3261C168.335 48.8183 169.465 49.0789 170.972 49.0789V50.0634C170.566 50.0345 169.697 50.0055 168.306 49.9476C166.915 49.8897 165.552 49.8607 164.219 49.8607C163.234 49.8607 162.19 49.8897 161.147 49.9476C160.104 50.0055 159.437 50.0345 159.147 50.0634V49.0789C160.306 49.0789 161.089 48.8762 161.553 48.4419C162.016 48.0075 162.248 47.2547 162.248 46.1544V22.584C162.248 21.1362 161.987 20.0938 161.466 19.4278C160.944 18.7618 160.017 18.4433 158.683 18.4433V17.4588C159.669 17.5456 160.625 17.6035 161.582 17.6035C163.553 17.6035 165.205 17.4008 166.451 16.9665V21.918C167.146 20.2965 168.161 19.0513 169.465 18.1827C170.769 17.285 172.277 16.8507 173.958 16.8507C175.61 16.8507 177.117 17.314 178.421 18.2116C179.783 19.0513 180.827 20.3833 181.58 22.1497ZM178.16 29.0702C178.16 21.8311 176.334 18.2116 172.711 18.2116C171.291 18.2116 170.016 18.7328 168.885 19.7463C167.755 20.7598 166.944 22.2365 166.48 24.1476V38.1624C166.944 39.089 167.581 39.8419 168.422 40.3631C169.262 40.9133 170.277 41.1739 171.436 41.1739C175.928 41.1739 178.16 37.149 178.16 29.0702ZM199.347 39.3786C198.651 40.1604 197.84 40.5368 196.854 40.5368C195.869 40.5368 195.115 40.2183 194.623 39.6103C194.13 39.0022 193.869 37.9597 193.869 36.5699V18.4433H200.796V17.4877H193.869V9.66953C192.826 10.0749 191.405 10.2776 189.666 10.3355V17.4877H185.145V18.4143H189.666V34.1086C189.666 35.817 189.811 37.149 190.072 38.1335C190.333 39.147 190.826 39.9867 191.492 40.6527C192.014 41.1739 192.623 41.5793 193.318 41.8399C194.014 42.1005 194.883 42.2163 195.927 42.2163C199.231 42.2163 201.26 40.0446 202.013 35.7301L201.086 35.4985C200.622 37.3227 200.042 38.6257 199.347 39.3786ZM224.591 22.3523C225.519 24.2635 225.982 26.6379 225.982 29.5624C225.982 32.4581 225.519 34.8614 224.591 36.7436C223.664 38.6257 222.418 40.0156 220.823 40.9133C219.229 41.8109 217.403 42.2453 215.346 42.2453C213.288 42.2453 211.462 41.8109 209.868 40.9133C208.274 40.0156 207.027 38.6257 206.1 36.7436C205.173 34.8614 204.709 32.4581 204.709 29.5624C204.709 26.6668 205.173 24.2635 206.1 22.3523C207.027 20.4702 208.274 19.0513 209.868 18.1537C211.462 17.2561 213.288 16.7928 215.346 16.7928C217.403 16.7928 219.229 17.2561 220.823 18.1537C222.389 19.0513 223.664 20.4702 224.591 22.3523ZM221.403 29.5624C221.403 25.5375 220.852 22.555 219.751 20.6439C218.65 18.7328 217.172 17.7773 215.288 17.7773C213.404 17.7773 211.926 18.7328 210.824 20.6439C209.723 22.555 209.172 25.5375 209.172 29.5624C209.172 33.5874 209.723 36.5409 210.824 38.452C211.926 40.3631 213.404 41.3187 215.288 41.3187C217.172 41.3187 218.65 40.3631 219.751 38.452C220.852 36.5119 221.403 33.5584 221.403 29.5624ZM8.83989 34.7746C8.40515 35.2668 7.88345 35.4985 7.2748 35.4985C6.66615 35.4985 6.20242 35.2958 5.8836 34.9193C5.56479 34.5429 5.41987 33.9059 5.41987 33.0372V21.7732H9.73838V21.1941H5.41987V16.3295C4.75325 16.5901 3.88376 16.7059 2.81138 16.7348V21.1941H0V21.7732H2.81138V31.5315C2.81138 32.5739 2.89833 33.4136 3.07223 34.0507C3.24613 34.6877 3.53596 35.2089 3.94172 35.6143C4.28952 35.9328 4.63732 36.1934 5.07207 36.3382C5.50682 36.483 6.02852 36.5699 6.69513 36.5699C8.75294 36.5699 9.99922 35.2379 10.4919 32.5449L9.91228 32.4002C9.62244 33.5005 9.24566 34.3113 8.83989 34.7746ZM24.8966 34.7167C24.7517 34.4271 24.6648 33.9927 24.6648 33.4426V25.6823C24.6648 24.6978 24.5778 23.916 24.4329 23.3369C24.288 22.7577 24.0271 22.2655 23.6503 21.8601C22.9547 21.1362 21.9113 20.7598 20.5491 20.7598C19.4768 20.7598 18.4913 21.0204 17.6218 21.5705C16.7523 22.1207 16.0857 22.9894 15.593 24.2345V13.347C14.8394 13.6365 13.825 13.7524 12.5498 13.7524C11.9701 13.7524 11.3614 13.7234 10.7528 13.6655V14.2736C11.5933 14.2736 12.144 14.4763 12.4918 14.8816C12.8106 15.287 12.9845 15.9241 12.9845 16.8217V33.4136C12.9845 33.9638 12.8976 34.3692 12.7526 34.6877C12.6077 34.9773 12.3759 35.2089 12.057 35.3247C11.7382 35.4406 11.3035 35.4985 10.7528 35.4985V36.1066C12.5208 36.0197 13.7091 35.9907 14.2598 35.9907C14.8104 35.9907 15.8828 36.0197 17.5059 36.1066V35.4985C17.0132 35.4985 16.6364 35.4406 16.3755 35.3247C16.1147 35.2379 15.9118 35.0062 15.7959 34.7167C15.6799 34.4271 15.593 33.9927 15.593 33.4426V26.9564C15.593 25.9429 15.7669 25.0453 16.1147 24.2345C16.4625 23.4237 16.9552 22.8156 17.5639 22.3523C18.2015 21.918 18.8971 21.6864 19.6796 21.6864C20.3462 21.6864 20.839 21.8311 21.1868 22.1207C21.5346 22.4103 21.7664 22.7867 21.8824 23.2789C21.9983 23.7422 22.0563 24.3503 22.0563 25.0453V33.4426C22.0563 33.9927 21.9983 34.3981 21.8534 34.7167C21.7085 35.0062 21.5346 35.2379 21.2447 35.3537C20.9549 35.4695 20.5781 35.5274 20.1144 35.5274V36.1355C21.7374 36.0486 22.8388 36.0197 23.3895 36.0197C23.9112 36.0197 25.0705 36.0486 26.8965 36.1355V35.5274C26.3458 35.5274 25.911 35.4695 25.5922 35.3537C25.2734 35.2379 25.0415 35.0062 24.8966 34.7167ZM40.1998 32.4291L40.7794 32.6608C40.5476 33.3268 40.1998 33.9927 39.6781 34.5719C39.1854 35.18 38.5767 35.6432 37.8232 36.0197C37.0696 36.3961 36.2581 36.5699 35.3306 36.5699C33.9394 36.5699 32.7511 36.2513 31.7367 35.6143C30.7223 34.9773 29.9687 34.1086 29.418 32.9503C28.8963 31.821 28.6355 30.489 28.6355 29.0123C28.6355 27.3328 28.8963 25.8561 29.447 24.6109C29.9977 23.3658 30.7512 22.4103 31.7367 21.7443C32.7221 21.0783 33.8814 20.7308 35.2147 20.7308C36.9537 20.7308 38.3159 21.252 39.2433 22.3234C40.1998 23.3948 40.6635 24.9874 40.6635 27.1301H31.5628C31.5048 27.6224 31.4758 28.2594 31.4758 28.9833C31.4758 30.2574 31.6787 31.3867 32.1135 32.3422C32.5482 33.2978 33.0989 34.0217 33.7655 34.5429C34.4611 35.0641 35.1567 35.3247 35.9392 35.3247C37.8811 35.3247 39.3013 34.3692 40.1998 32.4291ZM31.5338 26.6089H37.8811C37.9101 25.6534 37.8232 24.7557 37.6493 23.9449C37.4464 23.1342 37.1276 22.4971 36.6928 22.0338C36.2581 21.5705 35.7364 21.3389 35.1277 21.3389C34.5191 21.3389 33.9684 21.5416 33.4757 21.918C32.983 22.2944 32.5482 22.9025 32.2004 23.6843C31.8526 24.4372 31.6207 25.4217 31.5338 26.6089ZM250.995 39.2628C250.763 38.7705 250.647 38.1045 250.647 37.2358V24.7268C250.647 23.1342 250.531 21.889 250.27 20.9335C250.01 19.9779 249.604 19.1961 249.024 18.5591C247.894 17.4008 246.242 16.7928 244.039 16.7928C242.271 16.7928 240.706 17.2271 239.315 18.1247C237.924 19.0224 236.822 20.4412 236.04 22.4392V16.9375C234.764 17.3719 233.141 17.5746 231.171 17.5746C230.214 17.5746 229.229 17.5167 228.272 17.4298V18.4143C229.605 18.4143 230.533 18.7328 231.055 19.3988C231.576 20.0648 231.837 21.1072 231.837 22.555V37.2069C231.837 38.0756 231.721 38.7416 231.489 39.2338C231.257 39.7261 230.881 40.0735 230.359 40.2473C229.837 40.45 229.142 40.5368 228.272 40.5368V41.5214C231.142 41.4055 233.025 41.3476 233.895 41.3476C234.793 41.3476 236.532 41.4055 239.17 41.5214V40.5368C238.387 40.5368 237.779 40.45 237.344 40.2473C236.909 40.0446 236.561 39.6971 236.359 39.2338C236.156 38.7416 236.04 38.0756 236.04 37.2069V26.8406C236.04 25.248 236.33 23.8002 236.851 22.4971C237.402 21.1941 238.184 20.1806 239.17 19.4278C240.184 18.6749 241.315 18.2985 242.59 18.2985C243.662 18.2985 244.474 18.5301 245.024 18.9934C245.575 19.4567 245.952 20.0938 246.126 20.8466C246.3 21.5995 246.387 22.555 246.387 23.6843V37.2358C246.387 38.1045 246.271 38.7705 246.068 39.2628C245.865 39.755 245.546 40.1025 245.111 40.2762C244.677 40.4789 244.068 40.5658 243.286 40.5658V41.5503C245.923 41.4345 247.662 41.3766 248.531 41.3766C249.43 41.3766 251.285 41.4345 254.154 41.5503V40.5658C253.256 40.5658 252.56 40.4789 252.067 40.2762C251.604 40.1025 251.227 39.755 250.995 39.2628ZM277.022 22.3523C277.949 24.2635 278.413 26.6379 278.413 29.5624C278.413 32.4581 277.949 34.8614 277.022 36.7436C276.095 38.6257 274.848 40.0156 273.254 40.9133C271.66 41.8109 269.834 42.2453 267.776 42.2453C265.719 42.2453 263.893 41.8109 262.299 40.9133C260.704 40.0156 259.458 38.6257 258.531 36.7436C257.603 34.8614 257.139 32.4581 257.139 29.5624C257.139 26.6668 257.603 24.2635 258.531 22.3523C259.458 20.4702 260.704 19.0513 262.299 18.1537C263.893 17.2561 265.719 16.7928 267.776 16.7928C269.834 16.7928 271.66 17.2561 273.254 18.1537C274.848 19.0513 276.095 20.4702 277.022 22.3523ZM273.863 29.5624C273.863 25.5375 273.312 22.555 272.211 20.6439C271.109 18.7328 269.631 17.7773 267.747 17.7773C265.863 17.7773 264.385 18.7328 263.284 20.6439C262.183 22.555 261.632 25.5375 261.632 29.5624C261.632 33.5874 262.183 36.5409 263.284 38.452C264.385 40.3631 265.863 41.3187 267.747 41.3187C269.631 41.3187 271.109 40.3631 272.211 38.452C273.312 36.5119 273.863 33.5584 273.863 29.5624ZM318.323 39.2628C318.091 38.7705 317.975 38.1045 317.975 37.2358V24.7268C317.975 23.1921 317.859 21.947 317.628 20.9625C317.396 20.0069 316.99 19.1961 316.439 18.5591C315.309 17.4008 313.686 16.7928 311.57 16.7928C309.889 16.7928 308.353 17.2271 306.991 18.0958C305.628 18.9645 304.527 20.3833 303.774 22.3523C303.6 20.7018 303.107 19.4278 302.324 18.588C301.194 17.4298 299.571 16.8217 297.455 16.8217C295.832 16.8217 294.325 17.285 292.963 18.2116C291.601 19.1382 290.528 20.5571 289.746 22.4682V16.9665C288.47 17.4008 286.847 17.6035 284.876 17.6035C283.92 17.6035 282.935 17.5456 281.978 17.4588V18.4433C283.311 18.4433 284.239 18.7618 284.761 19.4278C285.282 20.0938 285.543 21.1362 285.543 22.584V37.2358C285.543 38.1045 285.427 38.7705 285.195 39.2628C284.963 39.755 284.587 40.1025 284.065 40.2762C283.543 40.4789 282.848 40.5658 281.978 40.5658V41.5503C284.848 41.4345 286.731 41.3766 287.601 41.3766C288.499 41.3766 290.238 41.4345 292.876 41.5503V40.5658C292.093 40.5658 291.485 40.4789 291.05 40.2762C290.615 40.0736 290.296 39.7261 290.064 39.2628C289.862 38.7705 289.746 38.1045 289.746 37.2358V26.8406C289.746 25.2769 290.035 23.8291 290.586 22.5261C291.137 21.2231 291.89 20.1806 292.847 19.4278C293.803 18.6749 294.905 18.2985 296.093 18.2985C297.136 18.2985 297.919 18.5301 298.441 18.9934C298.962 19.4567 299.281 20.0648 299.426 20.7887C299.571 21.5416 299.629 22.4971 299.629 23.6843V37.2358C299.629 38.1045 299.542 38.7705 299.339 39.2628C299.136 39.755 298.817 40.1025 298.383 40.2762C297.948 40.4789 297.339 40.5658 296.557 40.5658V41.5503C299.165 41.4345 300.933 41.3766 301.832 41.3766C302.701 41.3766 304.585 41.4345 307.425 41.5503V40.5658C306.556 40.5658 305.86 40.4789 305.339 40.2762C304.846 40.0736 304.469 39.7261 304.237 39.2628C304.005 38.7705 303.889 38.1045 303.889 37.2358V26.7826C303.889 25.219 304.15 23.7712 304.701 22.4971C305.252 21.2231 306.005 20.1806 306.962 19.4278C307.918 18.6749 308.991 18.2985 310.179 18.2985C311.251 18.2985 312.034 18.5301 312.555 18.9934C313.077 19.4567 313.396 20.0648 313.541 20.7887C313.686 21.5416 313.744 22.4971 313.744 23.6843V37.2358C313.744 38.1045 313.628 38.7705 313.425 39.2628C313.222 39.755 312.903 40.1025 312.469 40.2762C312.034 40.4789 311.425 40.5658 310.643 40.5658V41.5503C313.28 41.4345 315.019 41.3766 315.889 41.3766C316.758 41.3766 318.642 41.4345 321.511 41.5503V40.5658C320.613 40.5658 319.917 40.4789 319.425 40.2762C318.932 40.1025 318.555 39.755 318.323 39.2628ZM331.742 39.2628C331.511 38.7705 331.395 38.1045 331.395 37.2358V16.9375C330.119 17.3719 328.496 17.5746 326.525 17.5746C325.569 17.5746 324.584 17.5167 323.627 17.4298V18.4143C324.96 18.4143 325.888 18.7328 326.409 19.3988C326.931 20.0648 327.192 21.1072 327.192 22.555V37.2069C327.192 38.0756 327.076 38.7416 326.844 39.2338C326.612 39.7261 326.236 40.0735 325.714 40.2473C325.192 40.45 324.497 40.5368 323.627 40.5368V41.5214C326.496 41.4055 328.38 41.3476 329.308 41.3476C330.235 41.3476 332.119 41.4055 334.989 41.5214V40.5368C334.09 40.5368 333.394 40.45 332.902 40.2473C332.351 40.1025 331.974 39.755 331.742 39.2628ZM327.482 11.32C327.946 11.5806 328.438 11.7254 328.989 11.7254C329.511 11.7254 330.032 11.6096 330.467 11.32C330.931 11.0594 331.308 10.683 331.569 10.2197C331.829 9.7564 331.974 9.26414 331.974 8.71398C331.974 8.19276 331.829 7.67155 331.569 7.23721C331.308 6.77391 330.931 6.42644 330.467 6.13687C330.003 5.87627 329.511 5.73149 328.989 5.73149C328.467 5.73149 327.946 5.87627 327.482 6.13687C327.018 6.42644 326.641 6.77391 326.381 7.23721C326.12 7.70051 325.975 8.19276 325.975 8.71398C325.975 9.23519 326.12 9.7564 326.381 10.2197C326.641 10.712 327.018 11.0594 327.482 11.32ZM351.77 29.9678C350.9 29.2439 349.741 28.4042 348.292 27.4776C347.857 27.188 347.104 26.7247 346.06 26.0587C345.017 25.3928 344.118 24.7268 343.394 24.0029C342.669 23.2789 342.292 22.3813 342.292 21.281C342.292 20.1517 342.64 19.283 343.365 18.646C344.089 18.0089 345.017 17.6904 346.147 17.6904C348.089 17.6904 349.538 18.3564 350.553 19.7173C351.538 21.0493 352.205 22.7577 352.552 24.8136H353.596C353.596 21.0204 353.654 18.3853 353.77 16.8507H352.697C352.552 18.2116 352.205 18.9066 351.654 18.9066C351.451 18.9066 351.161 18.7907 350.842 18.5301C350.292 18.0958 349.567 17.6904 348.698 17.3429C347.828 16.9955 346.843 16.8217 345.741 16.8217C344.466 16.8217 343.307 17.0534 342.234 17.4877C341.191 17.922 340.35 18.617 339.742 19.5146C339.104 20.4123 338.814 21.5416 338.814 22.8736C338.814 24.0897 339.104 25.1611 339.655 26.0587C340.206 26.9564 340.901 27.7382 341.713 28.3463C342.524 28.9833 343.712 29.7651 345.249 30.7497C346.524 31.5315 347.509 32.1975 348.205 32.7476C348.901 33.2978 349.48 33.9059 349.915 34.5719C350.35 35.2668 350.553 36.0197 350.553 36.8594C350.553 37.9018 350.35 38.7705 349.944 39.4365C349.538 40.1025 349.016 40.5658 348.379 40.8843C347.741 41.1739 347.075 41.3187 346.408 41.3187C344.901 41.3187 343.712 40.9712 342.843 40.2762C341.945 39.5813 341.307 38.5968 340.872 37.3517C340.437 36.1065 340.119 34.514 339.887 32.5739H338.814C338.814 37.0331 338.756 40.1315 338.64 41.9267H339.713C339.887 40.7395 340.206 40.1604 340.669 40.1604C340.843 40.1604 340.988 40.2183 341.104 40.3342C341.771 40.8554 342.408 41.2897 343.017 41.5793C344.089 42.0136 345.336 42.2453 346.727 42.2453C348.176 42.2453 349.509 41.9847 350.726 41.4924C351.944 40.9712 352.929 40.2473 353.654 39.2628C354.378 38.2783 354.755 37.0911 354.755 35.7012C354.755 34.485 354.494 33.4136 353.944 32.487C353.364 31.5315 352.639 30.6917 351.77 29.9678ZM373.073 35.5564C372.609 37.3517 372.029 38.6257 371.334 39.4076C370.638 40.1894 369.826 40.5658 368.841 40.5658C367.856 40.5658 367.102 40.2473 366.609 39.6392C366.117 39.0311 365.856 37.9887 365.856 36.5988V18.4433H372.783V17.4877H365.856V9.66953C364.812 10.0749 363.392 10.2776 361.653 10.3355V17.4877H357.132V18.4143H361.653V34.1086C361.653 35.817 361.798 37.149 362.059 38.1335C362.32 39.147 362.812 39.9867 363.479 40.6527C364.001 41.1739 364.638 41.5793 365.305 41.8399C366.001 42.1005 366.87 42.2163 367.914 42.2163C371.218 42.2163 373.246 40.0446 374 35.7301L373.073 35.5564ZM110.078 41.9267C105.412 49.1948 97.3838 54.1173 88.1961 54.4937C72.3712 55.1018 59.2998 42.0426 59.9374 26.2325C60.3142 16.4163 65.9369 7.93216 74.0812 3.4729C74.429 3.27021 74.7478 3.73351 74.458 3.99411C68.1396 9.7564 64.6906 18.646 66.5745 28.2305C67.3571 32.2554 69.1251 35.9328 71.5887 39.0311C72.3422 37.6412 73.8204 35.9039 73.8493 33.6163C73.9073 27.217 73.9073 20.8466 73.8783 14.4473C73.8783 13.3759 74.1682 12.6231 75.0087 11.9281C79.7329 8.04798 84.3993 4.10994 89.1235 0.258763C89.4713 -0.030799 90.2829 -0.0887114 90.6886 0.142938C93.8768 1.93822 106.282 6.13687 107.644 6.28165C107.876 6.31061 108.281 6.65809 107.818 7.06347C107.818 7.06347 104.137 10.7409 102.137 12.7678C101.789 13.1153 101.354 13.0285 101.007 12.9126C98.9778 12.2177 95.8766 10.9436 93.1232 9.84327V26.2614H95.181V28.3173H93.0363V48.6735C99.4416 48.355 105.267 45.72 109.586 41.5503C109.876 41.2318 110.281 41.5793 110.078 41.9267ZM85.5296 28.2594H81.7618C81.0372 31.2998 79.4721 33.819 77.0085 36.1066C76.197 36.8594 74.1392 38.8284 73.1248 39.8129C72.8929 40.0446 72.8639 40.421 73.0668 40.6816C73.1537 40.7685 73.2407 40.8554 73.3277 40.9422C73.5015 41.116 73.6754 41.2897 73.8204 41.4345C74.1102 41.7241 74.429 42.0136 74.7478 42.2742C74.9217 42.419 75.0956 42.5638 75.2695 42.7086C75.4724 42.8823 75.6753 43.056 75.8782 43.2008C77.6172 44.5328 79.617 45.6911 81.6169 46.5597C82.7762 47.052 83.9935 47.4574 85.2398 47.7759C85.3847 47.7469 85.5296 47.6022 85.5296 47.4284V28.2594ZM85.5586 7.32408C85.5586 7.00556 85.2398 6.86078 84.9499 7.03452C84.9499 7.03452 84.3993 7.38199 84.1094 7.52677C82.6603 8.39546 82.1096 9.7564 82.1675 11.4938L82.2255 23.6554C82.2545 24.553 82.1965 25.3638 82.0806 26.2035H85.5006L85.5586 7.32408ZM90.9205 28.2594H87.6164C87.6164 34.5719 87.6164 40.8554 87.5874 46.6177C87.5874 47.7759 87.8483 48.2971 88.9786 48.4998C89.6452 48.5577 90.2829 48.6156 90.9205 48.6446V28.2594ZM90.9205 8.94563C90.2829 8.68502 89.6742 8.48233 89.1525 8.27963C89.0366 8.25068 88.7467 8.13485 88.6308 8.1059C87.8193 7.84529 87.5874 8.22172 87.5874 8.65606C87.5874 8.94563 87.5874 9.20623 87.5874 9.46684C87.5874 14.7079 87.5874 20.4123 87.5874 26.1746H90.8915V8.94563H90.9205Z" fill="white"/>
</svg>
