<svg width="308" height="72" viewBox="0 0 308 72" fill="none" xmlns="http://www.w3.org/2000/svg">
<g clip-path="url(#clip0_9_592)">
<mask id="mask0_9_592" style="mask-type:luminance" maskUnits="userSpaceOnUse" x="0" y="0" width="308" height="72">
<path d="M307.98 0H0V71.7492H307.98V0Z" fill="white"/>
</mask>
<g mask="url(#mask0_9_592)">
<path d="M62.0097 60.3327C60.3846 62.085 58.5861 63.6678 56.6423 65.0569C50.5722 69.4183 43.2891 71.7626 35.819 71.7595C29.4417 71.759 23.18 70.0528 17.6811 66.8171C12.1822 63.5815 7.64542 58.9338 4.53948 53.3541C1.43354 47.7744 -0.128897 41.4653 0.0135805 35.0782C0.156059 28.6913 1.99829 22.4583 5.34995 17.0231C5.51411 16.754 5.67827 16.5248 5.84739 16.2358L6.34484 15.4634C6.96168 14.5664 7.62496 13.7026 8.33465 12.8721L8.75749 12.3737C8.82176 12.2895 8.89157 12.2096 8.96642 12.1345C9.12062 11.9502 9.27982 11.7757 9.46387 11.6013L9.64794 11.407L14.8215 18.6975L14.8811 18.7872C14.7617 18.9317 14.6423 19.0862 14.5329 19.2357C14.4111 19.3782 14.2982 19.5279 14.1947 19.6842C10.3297 24.8501 8.43765 31.231 8.86077 37.6726C9.28388 44.1145 11.9942 50.1921 16.5015 54.8061C21.0089 59.42 27.0156 62.2658 33.4356 62.8291C39.8555 63.3921 46.2645 61.6352 51.5035 57.876L48.519 53.6851L43.4101 46.5042C45.4564 45.0329 47.0378 43.0041 47.9668 40.6588C48.7456 38.6757 49.029 36.532 48.7921 34.414C48.5553 32.2962 47.8056 30.2683 46.6083 28.5069C45.4108 26.7455 43.8021 25.3038 41.9215 24.3072C40.0412 23.3107 37.9462 22.7894 35.819 22.7888H35.2517C32.7347 22.8964 30.3038 23.7382 28.2577 25.2107L23.119 18.0447C25.0851 16.6379 27.2703 15.567 29.5859 14.8753H29.6107C31.6247 14.2692 33.7159 13.9586 35.819 13.9534C36.4705 13.9534 37.1123 13.9833 37.749 14.0381C41.5866 14.3737 45.2675 15.72 48.4183 17.9404C51.5687 20.1609 54.0772 23.1766 55.689 26.6816C57.3007 30.1865 57.9587 34.0562 57.5958 37.8981C57.2329 41.7401 55.8623 45.4175 53.6229 48.5572L56.7468 52.9375L62.0097 60.3327Z" fill="white" fill-opacity="0.15"/>
<path fill-rule="evenodd" clip-rule="evenodd" d="M43.3879 46.4757C41.9993 47.511 40.4186 48.2587 38.7383 48.6746C37.0578 49.0907 35.3114 49.1668 33.6013 48.8984C31.8911 48.6303 30.2517 48.0231 28.7786 47.1126C27.3056 46.2019 26.0285 45.0063 25.0222 43.5952C24.0159 42.1844 23.3008 40.5865 22.9184 38.8954C22.5359 37.2043 22.494 35.4536 22.7951 33.746C23.0961 32.0383 23.7341 30.4082 24.6717 28.9505C25.6093 27.493 26.8276 26.2372 28.2555 25.2568L43.3879 46.4757Z" fill="white"/>
<path d="M104.631 39.2775L109.441 42.8258C106.312 47.0116 102.631 48.8355 98.5618 48.8355C96.8337 48.8694 95.1165 48.5578 93.5099 47.9188C91.9037 47.2797 90.4406 46.3262 89.2066 45.1138C87.9725 43.9015 86.9922 42.4548 86.323 40.8586C85.6538 39.2622 85.3091 37.5481 85.3091 35.8168C85.3091 34.0853 85.6538 32.3712 86.323 30.775C86.9922 29.1786 87.9725 27.7319 89.2066 26.5196C90.4406 25.3075 91.9037 24.3539 93.5099 23.7148C95.1165 23.0757 96.8337 22.764 98.5618 22.7979C102.701 22.7979 106.452 24.7313 109.576 28.9124L104.7 32.4953C102.736 29.8592 100.721 28.8076 98.5618 28.8076C96.7108 28.8076 94.9357 29.5443 93.6267 30.8556C92.3179 32.1667 91.5826 33.9451 91.5826 35.7994C91.5826 37.6536 92.3179 39.4318 93.6267 40.7431C94.9357 42.0542 96.7108 42.7908 98.5618 42.7908C100.736 42.7908 102.666 41.8588 104.631 39.2775Z" fill="white"/>
<path d="M118.134 33.3058C119.735 32.5063 121.503 32.098 123.292 32.1148L121.924 37.6662C119.855 37.6662 118.134 38.7176 118.134 40.0184V48.4898H112.592V32.3939H118.134V33.3058Z" fill="white"/>
<path d="M127.817 55.9058L131.433 46.9807L125.504 32.3945H131.08L134.204 39.9842L137.254 32.3945H142.835L133.319 55.9058H127.817Z" fill="white"/>
<path d="M162.128 40.441C162.128 42.6672 161.248 44.8026 159.681 46.3811C158.904 47.1488 157.983 47.7551 156.972 48.1648C155.96 48.5745 154.877 48.7795 153.786 48.768C152.77 48.7386 151.788 48.3901 150.98 47.7714V55.924H145.429V32.3929H150.97V33.1305C151.772 32.501 152.757 32.1511 153.776 32.1339C154.868 32.1183 155.951 32.3195 156.965 32.7258C157.978 33.1322 158.901 33.7353 159.681 34.5009C161.248 36.0794 162.128 38.2149 162.128 40.441ZM156.587 40.441C156.581 39.8854 156.411 39.344 156.099 38.885C155.786 38.4258 155.345 38.0697 154.831 37.8612C154.317 37.6526 153.753 37.6012 153.21 37.7131C152.666 37.825 152.168 38.0955 151.778 38.4906C151.388 38.8855 151.123 39.3873 151.017 39.9326C150.911 40.4778 150.969 41.0425 151.182 41.555C151.396 42.0678 151.756 42.506 152.218 42.814C152.679 43.122 153.222 43.2864 153.776 43.2864C154.147 43.2844 154.514 43.2093 154.856 43.0654C155.198 42.9211 155.509 42.7112 155.77 42.4469C156.031 42.1826 156.237 41.8695 156.377 41.5254C156.518 41.1812 156.589 40.8127 156.587 40.441Z" fill="white"/>
<path d="M165.778 42.617V37.5592H163.847V32.3916H165.778V27.3684H171.319V32.3916H175.324V37.5592H171.319V42.5424C171.305 42.6598 171.338 42.7782 171.411 42.8717C171.483 42.965 171.59 43.0258 171.707 43.0408H175.075L176.513 48.4875H171.623C170.853 48.4902 170.091 48.34 169.379 48.0456C168.668 47.7514 168.022 47.319 167.478 46.773C166.935 46.2272 166.505 45.5788 166.213 44.8656C165.921 44.1522 165.773 43.3881 165.778 42.617Z" fill="white"/>
<path d="M194.932 40.4393C194.929 42.6669 194.046 44.8024 192.475 46.3792C190.919 47.933 188.812 48.8043 186.615 48.8012C185.504 48.8282 184.399 48.6326 183.364 48.2255C182.33 47.8185 181.387 47.2081 180.592 46.4306C179.796 45.6531 179.164 44.7239 178.733 43.6979C178.301 42.6719 178.079 41.5698 178.079 40.4565C178.079 39.3434 178.301 38.2414 178.733 37.2154C179.164 36.1894 179.796 35.2602 180.592 34.4827C181.387 33.7052 182.33 33.0948 183.364 32.6877C184.399 32.2807 185.504 32.0851 186.615 32.1121C187.7 32.1042 188.777 32.3108 189.782 32.7205C190.788 33.13 191.703 33.7346 192.475 34.4992C194.046 36.076 194.929 38.2117 194.932 40.4393ZM189.386 40.4393C189.355 39.7189 189.048 39.038 188.529 38.5391C188.009 38.0402 187.317 37.7616 186.597 37.7616C185.878 37.7616 185.186 38.0402 184.666 38.5391C184.147 39.038 183.84 39.7189 183.809 40.4393C183.793 40.816 183.854 41.1919 183.987 41.5447C184.12 41.8975 184.323 42.2196 184.583 42.4918C184.843 42.764 185.156 42.9807 185.502 43.1285C185.849 43.2765 186.221 43.3528 186.597 43.3528C186.974 43.3528 187.346 43.2765 187.693 43.1285C188.039 42.9807 188.352 42.764 188.612 42.4918C188.872 42.2196 189.075 41.8975 189.208 41.5447C189.341 41.1919 189.402 40.816 189.386 40.4393Z" fill="white"/>
<path d="M214.47 40.4406C214.469 42.6686 213.585 44.8051 212.013 46.3807C211.237 47.1479 210.317 47.754 209.306 48.1637C208.295 48.5734 207.213 48.7786 206.123 48.7676C205.105 48.7393 204.122 48.3906 203.312 47.771V55.9236H197.771V32.3927H203.312V33.1301C204.116 32.5006 205.103 32.1507 206.123 32.1335C207.213 32.1227 208.295 32.3279 209.306 32.7376C210.317 33.1473 211.237 33.7531 212.013 34.5206C213.58 36.0911 214.464 38.2195 214.47 40.4406ZM208.929 40.4406C208.923 39.8848 208.753 39.3433 208.44 38.8841C208.127 38.4249 207.686 38.0688 207.172 37.8602C206.658 37.6519 206.093 37.6007 205.55 37.7132C205.006 37.8256 204.508 38.0965 204.118 38.4919C203.729 38.8874 203.464 39.3895 203.359 39.9352C203.253 40.4808 203.311 41.0457 203.526 41.5582C203.74 42.071 204.101 42.5084 204.563 42.816C205.025 43.1235 205.568 43.2871 206.123 43.2862C206.494 43.284 206.861 43.2089 207.202 43.0647C207.544 42.9207 207.854 42.7105 208.115 42.4462C208.375 42.1819 208.581 41.8686 208.721 41.5245C208.861 41.1803 208.931 40.812 208.929 40.4406Z" fill="white"/>
<path d="M233.415 40.4393C233.414 42.6661 232.532 44.8019 230.963 46.3792C229.407 47.9316 227.299 48.8026 225.103 48.8012C223.992 48.8282 222.887 48.6326 221.852 48.2255C220.818 47.8185 219.875 47.2081 219.08 46.4306C218.284 45.6531 217.652 44.7239 217.221 43.6979C216.789 42.6719 216.567 41.5698 216.567 40.4565C216.567 39.3434 216.789 38.2414 217.221 37.2154C217.652 36.1894 218.284 35.2602 219.08 34.4827C219.875 33.7052 220.818 33.0948 221.852 32.6877C222.887 32.2807 223.992 32.0851 225.103 32.1121C226.188 32.1049 227.265 32.312 228.27 32.7217C229.275 33.1312 230.191 33.7353 230.963 34.4992C232.532 36.0765 233.414 38.2122 233.415 40.4393ZM227.874 40.4393C227.843 39.7189 227.536 39.038 227.017 38.5391C226.497 38.0402 225.805 37.7616 225.086 37.7616C224.366 37.7616 223.674 38.0402 223.154 38.5391C222.635 39.038 222.328 39.7189 222.297 40.4393C222.281 40.816 222.342 41.1919 222.475 41.5447C222.608 41.8975 222.811 42.2196 223.071 42.4918C223.331 42.764 223.644 42.9807 223.99 43.1285C224.337 43.2765 224.709 43.3528 225.086 43.3528C225.462 43.3528 225.834 43.2765 226.181 43.1285C226.527 42.9807 226.84 42.764 227.1 42.4918C227.361 42.2196 227.563 41.8975 227.696 41.5447C227.829 41.1919 227.89 40.816 227.874 40.4393Z" fill="white"/>
<path d="M236.576 48.4884V22.73H242.158V48.4884H236.576Z" fill="white"/>
<path d="M247.062 27.0529C247.062 26.6374 247.143 26.2256 247.301 25.8415C247.458 25.4572 247.69 25.1082 247.984 24.814C248.277 24.5201 248.626 24.2869 249.008 24.1281C249.392 23.9693 249.803 23.8878 250.216 23.8884C251.054 23.8884 251.858 24.2219 252.45 24.8152C253.043 25.4086 253.377 26.2136 253.377 27.0529C253.377 27.8921 253.043 28.6969 252.45 29.2905C251.858 29.8838 251.054 30.2172 250.216 30.2172C249.803 30.2184 249.39 30.1376 249.008 29.979C248.623 29.8202 248.275 29.5873 247.981 29.2931C247.69 28.9989 247.456 28.6495 247.298 28.2649C247.141 27.8804 247.062 27.4685 247.062 27.0529ZM247.451 32.3948H252.992V48.4908H247.451V32.3948Z" fill="white"/>
<path d="M258.813 42.617V37.5592H256.889V32.3916H258.813V27.3684H264.359V32.3916H268.339V37.5592H264.359V42.5424C264.345 42.6591 264.378 42.7768 264.45 42.8701C264.521 42.9633 264.626 43.0246 264.743 43.0408H268.126L269.564 48.4875H264.688C263.915 48.494 263.151 48.3469 262.435 48.0544C261.721 47.7619 261.071 47.33 260.525 46.7837C259.978 46.2375 259.546 45.5879 259.25 44.8726C258.956 44.1572 258.808 43.3905 258.813 42.617Z" fill="white"/>
<path d="M282.394 33.1324V32.3948H287.971V48.4908H282.394V47.7532C281.62 48.414 280.634 48.7684 279.617 48.7498C278.526 48.7498 277.445 48.5345 276.437 48.116C275.43 47.6974 274.513 47.0842 273.739 46.311C272.968 45.5376 272.357 44.6196 271.939 43.6094C271.522 42.5992 271.307 41.5162 271.307 40.4228C271.307 39.3293 271.522 38.2464 271.939 37.2362C272.357 36.2259 272.968 35.308 273.739 34.5346C274.513 33.7614 275.43 33.1481 276.437 32.7296C277.445 32.3111 278.526 32.0958 279.617 32.0958C280.639 32.0882 281.628 32.4572 282.394 33.1324ZM282.394 40.4426C282.384 39.8914 282.212 39.3554 281.9 38.9019C281.585 38.4485 281.145 38.0979 280.634 37.8944C280.121 37.6908 279.562 37.6435 279.023 37.758C278.486 37.8728 277.991 38.1443 277.607 38.5387C277.223 38.933 276.962 39.4327 276.862 39.9744C276.76 40.5163 276.819 41.0762 277.034 41.5839C277.249 42.0917 277.609 42.5243 278.07 42.8276C278.529 43.1308 279.068 43.2911 279.617 43.2882C280.362 43.2777 281.071 42.9725 281.592 42.4392C282.112 41.9061 282.401 41.1881 282.394 40.4426Z" fill="white"/>
<path d="M305.087 34.4305C306.536 35.8987 307.345 37.8826 307.335 39.9471V48.4883H301.794V39.9471C301.794 39.3456 301.555 38.7689 301.131 38.3437C300.706 37.9185 300.13 37.6795 299.531 37.6795C298.929 37.6795 298.354 37.9185 297.929 38.3437C297.506 38.7689 297.268 39.3456 297.268 39.9471V48.4883H291.719V32.3923H297.268V33.1299C297.545 32.4622 298.76 32.1333 299.545 32.1333C300.572 32.1247 301.589 32.3194 302.539 32.7059C303.492 33.0924 304.356 33.6633 305.087 34.3858V34.4305Z" fill="white"/>
<path fill-rule="evenodd" clip-rule="evenodd" d="M71.6219 35.8763C71.6219 42.4035 69.881 48.7811 66.4987 54.3617L60.729 46.24C62.818 41.2575 63.3652 35.7268 62.271 30.3954C62.2211 30.2459 62.2211 30.0467 62.1715 29.8972V29.8474C62.1218 29.648 62.0719 29.4985 62.0222 29.2993C61.9726 29.1 61.9726 29.0003 61.9227 28.8508C61.8234 28.5021 61.7238 28.2032 61.6243 27.8542C61.6243 27.7547 61.5746 27.655 61.5249 27.5553C61.5249 27.5055 61.475 27.4558 61.475 27.4058C61.3757 27.1068 61.2762 26.8079 61.1766 26.5089C61.127 26.3097 61.0274 26.1105 60.9281 25.911C60.8285 25.7118 60.7789 25.5126 60.6793 25.3131C60.5798 25.1139 60.5301 24.9147 60.4305 24.7152C60.2317 24.3168 60.0825 23.9181 59.8836 23.5195C59.784 23.37 59.7344 23.1707 59.6348 23.0212L59.5851 22.9714C59.5851 22.9714 59.5851 22.9714 59.5851 22.9216C59.4856 22.7223 59.386 22.5728 59.2867 22.3735C59.1872 22.1742 59.0876 21.9749 58.9384 21.8254C58.6899 21.4268 58.4411 21.0282 58.1923 20.6296C56.7501 18.4871 55.0091 16.5937 53.0693 14.9993L52.6217 14.6007L52.0248 14.1522C51.8756 14.0028 51.6767 13.9031 51.4779 13.7536C51.2788 13.6041 51.1295 13.5045 50.9803 13.4049C50.7815 13.2554 50.5826 13.1557 50.3835 13.0062C50.1846 12.8568 50.085 12.8069 49.9857 12.7571C49.8862 12.7073 49.7369 12.6076 49.5877 12.508C42.5746 8.37244 34.119 7.62505 26.509 10.4153C24.5196 11.1627 20.3415 13.654 20.1923 13.7536L15.0195 6.67837L15.7159 6.22994C17.4567 5.03412 19.297 3.98777 21.1871 3.14073C31.1347 -1.3436 42.525 -0.99482 52.2239 3.98777C52.572 4.13725 52.9201 4.33655 53.2186 4.53584C53.3678 4.6355 53.5666 4.73516 53.7159 4.8348L54.1635 5.13375C54.3127 5.23341 54.4622 5.33307 54.6114 5.43271C54.9595 5.63202 55.2579 5.83132 55.606 6.03062L56.004 6.27975C56.2029 6.37941 56.3521 6.52889 56.5509 6.67837C56.7501 6.82785 56.9489 6.92748 57.0981 7.07696L57.3966 7.3261L57.8939 7.72471C58.3415 8.07348 58.7892 8.4721 59.2368 8.82087C59.6845 9.16964 60.0825 9.56826 60.5301 9.96687L61.127 10.5648C61.3258 10.7641 61.5249 10.9634 61.7238 11.1627C62.1218 11.5613 62.4699 11.9599 62.8182 12.3585L63.2656 12.9066C63.4148 13.1059 63.5643 13.2554 63.7135 13.4547C63.8627 13.654 63.962 13.7536 64.0616 13.9031C64.1612 14.0526 64.3104 14.2021 64.4097 14.3515L64.7578 14.8C64.907 14.9993 65.0564 15.1986 65.1558 15.3979C65.2553 15.5972 65.4542 15.7965 65.5538 15.9958C65.6034 16.0954 65.703 16.1951 65.7526 16.2947C65.8023 16.3944 65.9018 16.494 65.9517 16.5937L66.2499 17.092C66.3991 17.3411 66.5486 17.5902 66.6978 17.8393L66.996 18.3874L67.2947 18.9355C67.2947 18.9355 67.2944 18.9853 67.3443 18.9853L67.394 19.0352C67.394 19.0352 67.394 19.085 67.4439 19.085C67.4439 19.085 67.4437 19.1348 67.4935 19.1348L67.792 19.6829L67.8416 19.7327C67.9412 19.932 68.0407 20.1313 68.1401 20.3805C68.2396 20.6296 68.3392 20.8289 68.4385 21.078L68.6873 21.6759L68.936 22.224L69.1349 22.7223C69.2345 22.9714 69.3338 23.1707 69.3837 23.37C69.4333 23.4198 69.4333 23.4697 69.4333 23.5693C69.5329 23.8184 69.6322 24.0676 69.6821 24.3168C69.881 24.8647 70.0302 25.4128 70.1794 26.0108C70.2291 26.26 70.3286 26.5589 70.3783 26.8079V26.9076C70.5275 27.5055 70.6767 28.0537 70.7763 28.6516C70.8259 28.9506 70.8758 29.2495 70.9255 29.4985C70.9255 29.5485 70.9255 29.5982 70.9255 29.5982C70.9752 29.8474 71.0248 30.0964 71.0747 30.3456L71.1743 31.1927V31.2425C71.2239 31.5414 71.2239 31.8404 71.2736 32.1393C71.3235 32.6875 71.3731 33.2354 71.4228 33.8333C71.6219 34.531 71.6219 35.1786 71.6219 35.8763Z" fill="white"/>
<path d="M61.9739 60.3405C60.3326 62.0845 58.542 63.679 56.6022 65.0741C50.5839 69.4089 43.2724 71.7508 35.8116 71.7508C16.0157 71.7508 0 55.7067 0 35.8762C0 29.1995 1.84032 22.6723 5.32201 17.0419C5.47123 16.7928 5.67017 16.5437 5.81939 16.2447L6.31677 15.4974C6.91363 14.6005 7.60997 13.7534 8.30632 12.9064L8.75396 12.4081C8.80369 12.3085 8.90318 12.2587 8.95291 12.159C9.10212 11.9597 9.25134 11.8102 9.45028 11.6109L9.64925 11.4116L14.822 18.6862L14.8718 18.7859C14.7723 18.9353 14.6231 19.0848 14.5236 19.2343C14.4241 19.3838 14.2749 19.5332 14.1754 19.6827C5.22253 31.6409 7.6597 48.5818 19.5969 57.5005C28.9974 64.5759 41.9294 64.7254 51.4792 57.8494L48.4949 53.664L43.4216 46.4891C45.461 44.9944 47.0524 43.0012 47.9976 40.6595C50.6336 33.933 47.3508 26.3594 40.6362 23.7186C39.0944 23.1207 37.5027 22.8218 35.8613 22.8218H35.3143C32.7777 22.9214 30.3902 23.7684 28.3012 25.2633L23.1283 18.0385C25.1178 16.6433 27.2567 15.5472 29.5943 14.8496C31.5839 14.2517 33.7226 13.9527 35.8116 13.9527C36.4581 13.9527 37.1049 14.0026 37.7514 14.0524C49.7882 15.0987 58.6415 25.7118 57.597 37.7695C57.2489 41.6559 55.8561 45.3928 53.6179 48.5818L56.7514 52.9664L61.9739 60.3405Z" fill="white" fill-opacity="0.15"/>
<path fill-rule="evenodd" clip-rule="evenodd" d="M43.3699 46.4875C37.6002 50.7726 29.4433 49.5768 25.1657 43.7969C20.8882 38.0171 22.0819 29.8458 27.8516 25.5607C28.0008 25.4609 28.15 25.3615 28.2495 25.2617L43.3699 46.4875Z" fill="white"/>
<path d="M104.6 39.2658L109.424 42.8033C106.291 46.9887 102.61 48.8324 98.5313 48.8324C91.369 48.9819 85.4004 43.2517 85.3011 36.0768C85.2015 28.9019 90.8717 22.9229 98.034 22.8232C98.1833 22.8232 98.3821 22.8232 98.5313 22.8232C102.66 22.8232 106.44 24.7665 109.524 28.9519L104.649 32.5394C102.709 29.8985 100.67 28.8522 98.5313 28.8522C94.7016 28.8522 91.5681 31.9912 91.5681 35.8279C91.5681 39.6643 94.7016 42.8033 98.5313 42.8033C100.72 42.8033 102.66 41.8567 104.6 39.2658Z" fill="white"/>
<path d="M118.129 33.2869C119.72 32.4895 121.511 32.0911 123.301 32.0911L121.958 37.6217C119.869 37.6217 118.178 38.6681 118.178 39.9634V48.4339H112.657V32.39H118.178V33.2869H118.129Z" fill="white"/>
<path d="M127.778 55.9076L131.409 46.9887L125.49 32.3899H131.061L134.194 39.9633L137.228 32.3899H142.799L133.299 55.9076H127.778Z" fill="white"/>
<path d="M162.099 40.4108C162.099 42.653 161.204 44.7954 159.662 46.3401C158.07 47.8847 155.981 48.7318 153.743 48.7318C152.748 48.6818 151.754 48.3331 150.958 47.7352V55.9067H145.387V32.3888H150.908V33.1361C151.704 32.4885 152.699 32.1398 153.693 32.1398C155.882 32.0898 158.021 32.9369 159.612 34.5314C161.204 36.0759 162.099 38.2184 162.099 40.4108ZM156.578 40.4108C156.578 38.8663 155.285 37.6205 153.743 37.6205C152.201 37.6205 150.958 38.916 150.958 40.4605C150.958 42.0053 152.251 43.2509 153.743 43.2509C155.335 43.2509 156.578 42.0053 156.578 40.4108Z" fill="white"/>
<path d="M165.727 42.6012V37.5687H163.787V32.387H165.727V27.3545H171.248V32.387H175.227V37.5687H171.248V42.5514C171.198 42.8004 171.397 42.9999 171.646 43.0496H175.028L176.47 48.4806H171.596C168.363 48.4806 165.777 45.8897 165.727 42.6509C165.727 42.6509 165.727 42.6509 165.727 42.6012Z" fill="white"/>
<path d="M194.924 40.4118C194.924 42.654 194.028 44.7967 192.486 46.3412C190.944 47.8857 188.806 48.7826 186.617 48.7826C182.041 48.8823 178.212 45.2451 178.062 40.661C177.963 36.077 181.594 32.2405 186.17 32.0911C186.319 32.0911 186.418 32.0911 186.568 32.0911C188.756 32.0911 190.845 32.9379 192.437 34.4827C194.028 36.077 194.874 38.2196 194.924 40.4118ZM189.353 40.4118C189.303 38.8673 188.01 37.6715 186.468 37.7212C185.026 37.7712 183.882 38.967 183.782 40.4118C183.732 41.9566 184.926 43.2519 186.468 43.3019C188.01 43.3516 189.303 42.1558 189.353 40.6113C189.353 40.6113 189.353 40.5115 189.353 40.4118Z" fill="white"/>
<path d="M214.421 40.4087C214.421 42.6509 213.525 44.7935 211.983 46.3381C210.392 47.8826 208.303 48.7297 206.114 48.7297C205.119 48.6799 204.125 48.331 203.329 47.7331V55.9046H197.808V32.3869H203.329V33.1343C204.125 32.4864 205.119 32.1377 206.114 32.1377C208.303 32.1377 210.441 32.9848 211.983 34.5293C213.525 36.0739 214.421 38.2165 214.421 40.4087ZM208.899 40.4087C208.899 38.8642 207.606 37.6186 206.064 37.6186C204.523 37.6186 203.279 38.9139 203.279 40.4587C203.279 42.0032 204.572 43.2488 206.114 43.2488C207.656 43.2488 208.899 42.0032 208.899 40.4087Z" fill="white"/>
<path d="M233.375 40.4118C233.375 42.654 232.479 44.7967 230.937 46.3412C229.395 47.8857 227.257 48.7826 225.068 48.7826C220.492 48.8823 216.662 45.2451 216.513 40.661C216.414 36.077 220.044 32.2405 224.62 32.0911C224.77 32.0911 224.869 32.0911 225.018 32.0911C227.207 32.0911 229.296 32.9379 230.888 34.4827C232.479 36.077 233.375 38.2196 233.375 40.4118ZM227.854 40.4118C227.804 38.8673 226.51 37.6715 224.969 37.7212C223.526 37.7712 222.382 38.967 222.283 40.4118C222.233 41.9566 223.427 43.2519 224.969 43.3019C226.51 43.3516 227.804 42.1558 227.854 40.6113C227.854 40.6113 227.854 40.5115 227.854 40.4118Z" fill="white"/>
<path d="M236.557 48.4803V22.7205H242.127V48.4803H236.557Z" fill="white"/>
<path d="M247.05 27.0555C247.05 25.3115 248.442 23.9165 250.182 23.9165C251.923 23.9165 253.365 25.3115 253.365 27.0555C253.365 28.7995 251.973 30.2443 250.182 30.2443C248.442 30.1946 247.05 28.7995 247.05 27.0555ZM247.396 32.387H252.918V48.4806H247.396V32.387Z" fill="white"/>
<path d="M258.789 42.6012V37.5687H256.851V32.387H258.789V27.3545H264.361V32.387H268.339V37.5687H264.361V42.5514C264.311 42.8004 264.51 42.9999 264.758 43.0496H268.141L269.583 48.4806H264.71C261.475 48.5305 258.839 45.9394 258.839 42.7009C258.789 42.6509 258.789 42.6509 258.789 42.6012Z" fill="white"/>
<path d="M282.365 33.1374V32.39H287.935V48.4836H282.365V47.7362C281.57 48.3841 280.625 48.7328 279.579 48.7328C275.002 48.7328 271.273 44.9959 271.273 40.4118C271.273 35.828 275.002 32.0911 279.579 32.0911C280.574 32.0911 281.57 32.4398 282.365 33.1374ZM282.365 40.4118C282.315 38.8673 281.071 37.6217 279.529 37.6715C277.986 37.7212 276.745 38.967 276.793 40.5116C276.843 42.0561 278.087 43.2519 279.579 43.2519C281.121 43.2519 282.365 42.0063 282.365 40.4118Z" fill="white"/>
<path d="M305.044 34.4317C306.486 35.8767 307.283 37.8697 307.283 39.9624V48.4826H301.761V39.9624C301.761 38.7168 300.768 37.6705 299.524 37.6705C298.28 37.6705 297.234 38.6668 297.234 39.9126V48.4328H291.664V32.3888H297.234V33.1361C297.533 32.4885 298.726 32.1398 299.524 32.1398C301.563 32.0898 303.551 32.9369 305.044 34.4317Z" fill="white"/>
</g>
</g>
<defs>
<clipPath id="clip0_9_592">
<rect width="307.98" height="71.7492" fill="white"/>
</clipPath>
</defs>
</svg>
