<svg width="392" height="46" viewBox="0 0 392 46" fill="none" xmlns="http://www.w3.org/2000/svg">
<g clip-path="url(#clip0_9_718)">
<path d="M50.1165 1.7718H33.4136V27.1458H38.6087V17.496H48.0389V12.8059H38.6087V6.46189H50.1165V1.7718ZM59.1989 1.7718H54.0038V27.1458H59.1989V1.7718ZM81.4448 1.7718V16.9187L66.7036 1.31038H65.0099V27.1458H70.205V11.921L84.9063 27.6072H86.638V1.7718H81.4429H81.4448ZM108.848 27.1458H114.429L103.113 1.31038H101.381L90.0273 27.1458H95.6083L97.032 23.8399H107.424L108.848 27.1458ZM105.614 19.5714H98.8397L102.227 10.9982L105.614 19.5714ZM134.327 1.7699V16.9168L119.586 1.30849H117.892V27.1439H123.087V11.9191L137.791 27.6053H139.522V1.7699H134.327ZM157.419 1.30849C149.836 1.30849 143.871 6.99926 143.871 14.4578C143.871 21.9164 149.836 27.6053 157.381 27.6053C162.308 27.6053 166.425 25.1824 168.619 21.3012L164.694 18.5327C163 21.2233 160.614 22.7994 157.419 22.7994C152.686 22.7994 149.22 19.3777 149.22 14.4958C149.22 9.57406 152.684 6.11441 157.419 6.11441C160.614 6.11441 163 7.69043 164.694 10.3811L168.619 7.61258C166.387 3.72949 162.306 1.30659 157.419 1.30659V1.30849ZM178.241 1.7699H173.046V27.1439H178.241V1.7699ZM200.449 27.1439H206.03L194.714 1.30849H192.982L181.628 27.1439H187.209L188.633 23.838H199.025L200.449 27.1439ZM197.216 19.5695H190.441L193.828 10.9963L197.216 19.5695ZM214.688 1.768H209.493V27.142H225.812V22.4519H214.688V1.768ZM255.601 1.768H238.512V27.142H256.063V22.4519H243.709V16.032H252.446V11.6115H243.709V6.45999H255.601V1.7699V1.768ZM280.734 27.142L272.382 14.2243L280.194 1.768H274.306L269.456 9.76395L264.569 1.768H258.642L266.571 14.2243L258.142 27.142H264.069L269.456 18.7226L274.845 27.142H280.734ZM293.744 1.768H284.2V27.142H289.395V18.1852H293.744C299.093 18.1852 302.904 14.8414 302.904 9.95763C302.904 4.9979 299.093 1.768 293.744 1.768ZM293.744 6.34227C296.169 6.34227 297.593 7.84234 297.593 9.95573C297.593 12.147 296.169 13.647 293.744 13.647H289.395V6.34227H293.744ZM328.498 27.142L321.301 17.1845C324.034 15.8383 325.766 13.2236 325.766 9.95573C325.766 4.996 321.957 1.7661 316.606 1.7661H307.061V27.1401H312.257V18.1833H316.068L322.649 27.1401H328.499L328.498 27.142ZM312.255 6.34227H316.604C319.029 6.34227 320.453 7.84234 320.453 9.95573C320.453 12.147 319.029 13.6091 316.604 13.6091H312.255V6.34227ZM348.78 1.768H331.691V27.142H349.242V22.4519H336.888V16.032H345.624V11.6115H336.888V6.45999H348.78V1.7699V1.768ZM361.712 1.30659C356.938 1.30659 353.283 4.11305 353.283 8.49553C353.283 12.071 355.823 14.1464 359.44 15.8003L362.173 17.0307C364.175 17.9536 365.407 18.5308 365.407 20.1828C365.407 21.9506 364.021 22.9893 361.789 22.9893C358.75 22.9893 356.94 21.2214 355.555 19.2979L351.975 21.9886C353.861 25.3723 357.402 27.6015 361.789 27.6015C366.831 27.6015 370.68 24.7191 370.68 19.9891C370.68 16.3756 368.408 14.3382 364.407 12.5685L361.521 11.3001C359.674 10.4551 358.558 9.8399 358.558 8.37781C358.558 6.68595 360.02 5.91693 361.713 5.91693C363.791 5.91693 365.331 6.99356 366.563 8.83922L370.104 6.11061C368.602 3.34213 365.755 1.30469 361.713 1.30469L361.712 1.30659ZM383.034 1.30659C378.261 1.30659 374.605 4.11305 374.605 8.49553C374.605 12.071 377.145 14.1464 380.762 15.8003L383.496 17.0307C385.497 17.9536 386.729 18.5308 386.729 20.1828C386.729 21.9506 385.343 22.9893 383.112 22.9893C380.07 22.9893 378.262 21.2214 376.877 19.2979L373.297 21.9886C375.183 25.3723 378.724 27.6015 383.112 27.6015C388.153 27.6015 392.002 24.7191 392.002 19.9891C392.002 16.3756 389.73 14.3382 385.729 12.5685L382.842 11.3001C380.994 10.4551 379.878 9.8399 379.878 8.37781C379.878 6.68595 381.34 5.91693 383.034 5.91693C385.111 5.91693 386.651 6.99356 387.883 8.83922L391.424 6.11061C389.922 3.34213 387.075 1.30469 383.034 1.30469V1.30659Z" fill="white"/>
<path d="M306.331 45.4296L303.792 41.2104C304.767 40.9655 305.959 40.1452 305.959 38.2748C305.959 36.433 304.738 35.2576 302.026 35.2576H298.18V45.4296H299.946V41.4421H301.899L304.28 45.4296H306.333H306.331ZM303.978 38.4115C303.978 39.5983 303.203 40.2268 301.811 40.2268H299.944V36.4861H301.781C303.459 36.4861 303.976 37.2647 303.976 38.4097L303.978 38.4115ZM314.8 41.3604C314.8 38.9584 313.507 37.2248 311.125 37.2248C308.801 37.2248 307.278 38.8483 307.278 41.2522C307.278 43.5726 308.542 45.6632 311.542 45.6632C312.547 45.6632 313.737 45.2929 314.655 44.4194L314.125 43.6276C313.178 44.3378 312.46 44.5561 311.599 44.5561C309.934 44.5561 309.072 43.4225 308.958 41.7991H314.771C314.8 41.6756 314.8 41.5389 314.8 41.3623V41.3604ZM313.078 40.9104H308.958C309.188 39.2584 309.835 38.3033 311.04 38.3033C312.446 38.3033 312.948 39.3002 313.078 40.9104ZM324.416 44.2409C324.215 44.2808 324.057 44.296 323.886 44.296C323.384 44.296 323.11 44.1327 323.11 43.3276V39.792C323.11 38.29 322.234 37.295 319.982 37.295C318.59 37.295 317.512 37.7318 316.581 38.3052L317.098 39.4236C317.873 38.9318 318.719 38.5767 319.71 38.5767C321.088 38.5767 321.533 39.1369 321.533 39.6135V40.1186C317.7 40.3085 316.151 41.3604 316.151 43.0941C316.151 44.6511 317.328 45.553 318.849 45.553C319.925 45.553 320.93 45.3043 321.618 44.3074C321.732 45.0043 321.977 45.5663 322.939 45.5663C323.513 45.5663 324.059 45.4011 324.403 45.196L324.418 44.2409H324.416ZM321.531 43.4757C320.972 44.0909 320.168 44.3909 319.263 44.3909C318.13 44.3909 317.683 43.8175 317.683 42.9991C317.683 42.1655 318.314 41.2237 321.529 40.9788V43.4757H321.531ZM333.012 45.4296V34.5076H331.404V38.085V38.5483C330.716 37.6482 329.824 37.3197 328.849 37.3197C326.654 37.3197 325.42 38.835 325.42 41.387C325.42 44.7859 327.328 45.553 328.75 45.553C329.914 45.553 330.529 45.3043 331.463 44.4175L331.577 45.4296H333.012ZM331.362 43.4339C330.874 44.0074 330.028 44.389 329.252 44.389C328.032 44.389 327.114 43.5972 327.114 41.3851C327.114 39.3781 327.889 38.4362 329.224 38.4362C330.545 38.4362 331.147 39.3097 331.362 39.9515V43.432V43.4339ZM343.934 38.835V37.7014H341.494V35.2576H340.159L339.857 37.7014H338.507V38.835H339.87V43.3124C339.87 44.841 340.589 45.5397 342.296 45.5397C342.984 45.5397 343.488 45.4448 343.86 45.2093V44.2125C343.53 44.3207 343.229 44.3207 342.914 44.3207C341.781 44.3207 341.494 43.8973 341.494 43.0238V38.8331H343.934V38.835ZM352.905 41.4288C352.905 38.9717 351.34 37.2248 348.957 37.2248C346.617 37.2248 345.052 38.9717 345.052 41.4421C345.052 43.8992 346.617 45.6613 348.957 45.6613C351.31 45.6613 352.905 43.8992 352.905 41.4269V41.4288ZM351.283 41.4687C351.283 43.2706 350.422 44.6492 348.958 44.6492C347.466 44.6492 346.677 43.2289 346.677 41.4554C346.677 39.6401 347.481 38.2881 348.958 38.2881C350.466 38.2881 351.283 39.6534 351.283 41.4687ZM365.391 45.4296V44.034H360.655V35.2576H358.889V45.4296H365.39H365.391ZM373.788 41.3604C373.788 38.9584 372.495 37.2248 370.113 37.2248C367.788 37.2248 366.268 38.8483 366.268 41.2522C366.268 43.5726 367.53 45.6632 370.53 45.6632C371.535 45.6632 372.725 45.2929 373.643 44.4194L373.113 43.6276C372.166 44.3378 371.448 44.5561 370.587 44.5561C368.921 44.5561 368.06 43.4225 367.946 41.7991H373.759C373.788 41.6756 373.788 41.5389 373.788 41.3623V41.3604ZM372.065 40.9104H367.946C368.176 39.2584 368.823 38.3033 370.028 38.3033C371.434 38.3033 371.936 39.3002 372.065 40.9104ZM383.404 44.2409C383.203 44.2808 383.045 44.296 382.874 44.296C382.372 44.296 382.098 44.1327 382.098 43.3276V39.792C382.098 38.29 381.222 37.295 378.969 37.295C377.578 37.295 376.5 37.7318 375.569 38.3052L376.086 39.4236C376.861 38.9318 377.707 38.5767 378.698 38.5767C380.076 38.5767 380.521 39.1369 380.521 39.6135V40.1186C376.688 40.3085 375.139 41.3604 375.139 43.0941C375.139 44.6511 376.316 45.553 377.837 45.553C378.912 45.553 379.918 45.3043 380.606 44.3074C380.72 45.0043 380.965 45.5663 381.927 45.5663C382.501 45.5663 383.047 45.4011 383.391 45.196L383.406 44.2409H383.404ZM380.519 43.4757C379.96 44.0909 379.156 44.3909 378.251 44.3909C377.118 44.3909 376.671 43.8175 376.671 42.9991C376.671 42.1655 377.302 41.2237 380.517 40.9788V43.4757H380.519ZM392 45.4296V34.5076H390.392V38.085V38.5483C389.704 37.6482 388.812 37.3197 387.837 37.3197C385.642 37.3197 384.408 38.835 384.408 41.387C384.408 44.7859 386.316 45.553 387.738 45.553C388.902 45.553 389.517 45.3043 390.451 44.4175L390.565 45.4296H392ZM390.35 43.4339C389.861 44.0074 389.016 44.389 388.24 44.389C387.02 44.389 386.102 43.5972 386.102 41.3851C386.102 39.3781 386.877 38.4362 388.211 38.4362C389.531 38.4362 390.135 39.3097 390.35 39.9515V43.432V43.4339Z" fill="white" fill-opacity="0.5"/>
<path d="M10.2438 2.66804C9.03679 4.13963 9.24778 6.35745 10.6905 7.61447L20.9496 16.8067C22.2935 17.9764 21.4096 19.915 21.4096 19.915L21.6206 20.0992L23.7667 17.4352C24.2913 16.7915 24.5479 16.0092 24.5517 15.2307V15.1908C24.5479 14.1863 24.1259 13.1856 23.3237 12.4869L13.0609 3.29655C11.717 2.12118 12.6028 0.184376 12.6028 0.184376L12.3918 -0.00170898L10.2457 2.66614L10.2438 2.66804Z" fill="white" fill-opacity="0.5"/>
<path d="M5.51451 8.55448C4.30745 10.0299 4.51845 12.2477 5.95931 13.5028L16.2202 22.6931C17.5641 23.8666 16.6783 25.8034 16.6783 25.8034L16.8893 25.9914L19.0354 23.3235C20.2406 21.8519 20.0315 19.6322 18.5906 18.3771L8.3297 9.18489C6.98388 8.01142 7.86969 6.07652 7.86969 6.07652L7.65869 5.89233L5.51261 8.55638L5.51451 8.55448Z" fill="white" fill-opacity="0.5"/>
<path d="M0.78316 14.4445C0.262321 15.0806 0.00570262 15.861 0 16.6396V16.6965C0.00570262 17.6972 0.427697 18.6941 1.22987 19.3909L11.4908 28.5832C12.8366 29.7585 11.9508 31.6953 11.9508 31.6953L12.1618 31.8814L14.3079 29.2136C15.513 27.7363 15.302 25.5204 13.8631 24.269L3.60216 15.0749C2.25634 13.9014 3.14214 11.9665 3.14214 11.9665L2.93115 11.7786L0.785061 14.4464L0.78316 14.4445Z" fill="white" fill-opacity="0.5"/>
</g>
<defs>
<clipPath id="clip0_9_718">
<rect width="392" height="45.6615" fill="white"/>
</clipPath>
</defs>
</svg>
