<svg width="308" height="84" viewBox="0 0 308 84" fill="none" xmlns="http://www.w3.org/2000/svg">
<path d="M174.471 27.9843C174.471 19.0663 174.625 10.7632 175.087 3.0752L151.526 7.53424V9.68688L153.836 9.9944C155.53 10.1482 156.608 10.7632 157.224 11.6858C157.84 12.7621 158.302 14.2997 158.61 16.6061C158.918 21.0651 159.226 31.2133 159.072 47.2044C159.072 63.0417 158.918 73.0361 158.61 76.8801C167.079 78.7252 173.701 79.494 178.628 79.494C187.868 79.494 195.105 76.8801 200.341 71.4985C205.577 66.2706 208.348 58.8901 208.348 49.8183C208.348 42.5916 206.346 36.5949 202.343 31.8284C198.339 27.0618 193.257 24.7554 187.252 24.7554C183.248 24.7554 179.09 25.8317 174.471 27.9843ZM174.933 75.3425C174.625 70.4222 174.317 55.6612 174.317 31.5208C175.702 31.0596 177.55 30.752 179.86 30.752C183.556 30.752 186.482 32.5972 188.638 36.4412C190.794 40.2852 191.871 44.898 191.871 50.7409C191.871 57.9676 190.64 63.8105 188.176 68.7308C185.712 73.4974 182.632 75.9575 178.782 75.9575C177.55 75.65 176.318 75.4962 174.933 75.3425ZM63.1358 4.6128H1.53979V7.688L4.77358 7.99552C7.23742 8.4568 8.93131 9.37936 10.0092 10.7632C11.0872 12.3008 11.7031 14.761 11.8571 18.1437C13.089 34.7498 13.089 50.2796 11.8571 64.5793C11.5491 67.962 10.9332 70.4222 10.0092 71.9598C8.93131 73.4974 7.23742 74.4199 4.77358 74.7274L1.53979 75.1887V78.2639H41.2692V75.1887L37.1115 74.8812C36.0969 74.7964 35.11 74.5075 34.2103 74.0319C33.3105 73.5562 32.5164 72.9037 31.8758 72.1135C30.7979 70.5759 30.1819 68.1158 30.0279 64.733C29.566 58.5826 29.258 51.5097 29.258 43.6679L37.5735 43.8216C42.0392 43.9754 45.119 47.3581 46.6589 54.1236H49.7387V29.0607H46.6589C45.119 35.6724 42.1932 39.0551 37.5735 39.2088L29.258 39.3626C29.258 25.5242 29.566 15.6835 30.0279 9.68688H42.1932C50.8166 9.68688 56.6682 15.2223 60.056 26.293L63.7518 25.2167L63.1358 4.6128ZM55.8983 51.9709C55.8983 59.9665 58.2081 66.5782 62.6738 71.806C67.1395 77.0339 73.7611 79.494 82.0766 79.494C90.392 79.494 97.1676 76.8801 102.095 71.4985C107.023 66.2706 109.333 59.6589 109.333 51.6634C109.333 43.6679 107.023 37.0562 102.557 31.8284C98.0915 26.6005 91.47 24.1403 83.1545 24.1403C74.839 24.1403 68.0635 26.7543 63.1358 32.1359C58.2081 37.3637 55.8983 43.9754 55.8983 51.9709ZM90.238 34.4423C92.0859 38.9013 92.8559 44.7442 92.8559 51.8172C92.8559 68.1158 89.4681 76.1113 82.8465 76.1113C79.4587 76.1113 76.8409 73.8049 74.993 69.1921C73.1451 64.5793 72.3752 58.7364 72.3752 51.8172C72.3752 35.6724 75.763 27.6768 82.3845 27.6768C85.7723 27.5231 88.3902 29.8295 90.238 34.4423ZM220.36 71.806C225.441 76.8801 231.909 79.494 239.608 79.494C244.382 79.494 248.54 78.5714 252.236 76.5726C255.931 74.7274 258.857 72.421 260.859 69.6534L259.319 67.8082C255.931 70.4222 252.082 71.6522 247.616 71.6522C241.456 71.6522 236.683 69.6534 233.449 65.5018C230.061 61.3503 228.521 56.1225 228.829 49.357H261.783C261.783 41.9765 259.935 35.9799 256.085 31.2133C252.236 26.6005 246.846 24.2941 239.916 24.2941C231.293 24.2941 224.671 27.0618 219.898 32.4434C215.124 37.825 212.814 44.4367 212.814 52.2785C212.814 60.274 215.278 66.7319 220.36 71.806ZM231.755 33.2122C233.449 29.5219 235.605 27.6768 238.53 27.6768C243.15 27.6768 245.46 33.5197 245.46 45.3592L229.137 45.6668C229.291 41.054 230.061 36.9024 231.755 33.2122ZM303.206 27.0618C299.048 25.2167 293.813 24.1403 287.499 24.1403C281.032 24.1403 275.95 25.8317 272.1 29.0607C268.25 32.2896 266.249 36.2874 266.249 41.054C266.249 45.2055 267.48 48.4345 269.79 50.7409C272.1 53.0473 275.796 55.0461 280.57 56.7375C284.881 58.2751 287.961 59.8127 289.501 61.1965C291.041 62.7341 291.965 64.4255 291.965 66.7319C291.965 68.8846 291.195 70.8834 289.501 72.421C287.961 74.1124 285.805 74.8812 283.034 74.8812C276.258 74.8812 271.176 69.9609 267.635 60.1202L265.017 60.889L265.633 76.265C271.176 78.4177 277.336 79.494 284.111 79.494C291.195 79.494 296.585 77.9564 300.588 74.7274C304.592 71.6522 306.594 67.1932 306.594 61.6578C306.594 57.9676 305.67 54.8924 303.668 52.586C301.666 50.2796 298.432 48.2807 293.813 46.4356C288.731 44.5905 285.189 42.8991 283.341 41.3615C281.494 39.8239 280.57 37.9788 280.57 35.6724C280.57 33.366 281.186 31.5208 282.572 29.9832C283.957 28.4456 285.651 27.8306 287.807 27.8306C293.967 27.8306 298.433 32.2896 301.204 41.054L303.822 40.2852L303.206 27.0618ZM155.068 25.6779C152.912 24.6016 150.602 24.1403 147.984 24.1403C145.366 24.1403 142.749 25.2167 139.823 27.3693C136.897 29.5219 134.741 32.4434 133.047 36.4412L133.201 24.1403L109.795 28.7531V30.9058L112.105 31.0596C115.03 31.3671 116.724 33.6735 117.032 37.825C117.956 47.3581 117.956 57.5063 117.032 68.2695C116.724 72.421 115.03 74.5737 112.105 75.035L109.795 75.3425V78.2639H142.441V75.3425L138.283 75.035C135.357 74.7274 133.663 72.421 133.355 68.2695C132.431 59.3514 132.277 49.8183 133.047 39.9776C133.971 38.44 135.973 37.5175 139.053 37.21C142.133 36.9024 145.674 37.825 149.37 39.9776L155.068 25.6779Z" fill="white"/>
</svg>
