<svg width="459" height="53" viewBox="0 0 459 53" fill="none" xmlns="http://www.w3.org/2000/svg">
<g clip-path="url(#clip0_9_710)">
<path fill-rule="evenodd" clip-rule="evenodd" d="M450.092 19.9351C451.082 19.3012 451.723 18.4337 451.665 18.1418C451.493 17.9221 451.082 17.9721 450.564 18.2641C449.981 18.5477 449.224 18.3781 448.813 17.7358C448.411 17.0963 447.992 17.2159 447.473 17.6302C446.952 18.0278 445.903 18.6116 445.431 17.6302C445.14 16.5264 445.251 16.8183 446.072 15.303C446.893 13.7933 447.063 12.5838 447.063 12.3475C447.063 12.1195 446.952 11.9999 446.191 12.3475C445.551 12.52 445.492 9.28072 445.431 8.81083C445.431 8.81083 445.431 7.94336 444.91 8.69684C444.502 9.22512 442.871 10.7821 442.341 10.9601C441.83 11.1326 441.07 10.6681 441.181 10.0342C441.181 9.39472 440.771 9.62272 440.593 10.0342C440.421 10.4346 439.192 14.3771 438.909 14.6107C438.612 14.8387 438.379 15.4226 437.861 14.4412C437.339 13.4458 436.418 11.1103 435.563 12.2641C435.333 12.0417 433.838 10.0287 432.617 9.97032C432.437 10.2067 432.728 10.7822 432.967 10.9601C433.197 11.2465 433.197 12.0639 432.967 12.6339C432.728 13.2178 432.728 13.9713 433.028 14.6692C433.197 15.0167 432.967 15.595 431.968 15.7146C430.986 15.8286 431.158 16.1149 431.569 16.6321C431.968 17.1604 433.488 18.4338 433.838 18.8981C434.179 19.368 433.78 19.9352 433.078 19.9935C432.379 20.0576 431.746 19.8211 431.569 20.2354C431.508 20.6414 432.087 20.4634 432.329 20.811C432.329 20.811 433.608 23.1242 435.297 23.0186C436.981 22.9046 437.056 23.1187 436.87 23.8304C436.698 24.4338 435.341 26.3995 434.068 26.5552C434.068 26.5552 433.505 26.3857 433.43 27.0196C433.394 27.2809 433.488 27.5033 433.788 27.7452C433.846 27.7868 433.949 27.8231 434.026 27.8231C435.161 27.9149 436.476 25.9519 437.331 24.4839C437.716 23.8083 437.869 23.5942 438.049 23.5942C438.132 23.5942 438.449 23.5526 438.79 24.1725C439.25 24.9816 441.592 27.3087 444.56 26.6693C444.679 26.3773 444.152 26.1438 443.8 25.9658C443.8 25.9658 442.579 24.9816 444.152 24.5284C445.723 24.1725 446.483 24.7481 447.823 23.6582C447.881 23.3023 447.123 23.1243 447.123 23.1243C447.123 23.1243 446.191 22.5543 448.924 21.7452C450.264 21.3893 450.264 21.1614 450.042 20.989C449.801 20.8111 449.163 20.5774 450.092 19.9351ZM117.443 31.1122H120.8V40.1011C119.679 40.4347 118.467 40.7767 117.154 40.7767C112.585 40.7767 109.531 37.3457 109.531 25.7933C109.531 18.2057 111.467 11.3938 117.06 11.3938C121.138 11.3938 122.6 14.8749 124.051 20.3855L126.39 19.8517V11.1464C125.416 10.518 122.351 9.26683 116.958 9.26683C107.925 9.26683 102.435 18.1557 102.435 26.7109C102.435 37.7739 108.754 43.09 116.769 43.09C118.708 43.09 122.206 42.3226 124.195 41.6442L127.211 41.4106V29.3661H117.443V31.1122Z" fill="white"/>
<path fill-rule="evenodd" clip-rule="evenodd" d="M147.374 37.4876C146.547 39.951 145.626 40.7767 143.729 40.7767H138.924C139.118 40.4848 139.118 37.2457 139.118 11.5384H142.755V9.79233H129.156V11.5384H132.513V40.7767H129.011V42.52H150.534L151.258 32.0798C150.534 31.9852 149.951 31.9852 149.219 31.8796L147.374 37.4876ZM165.734 40.8268C162.643 40.8268 158.77 38.2633 158.77 26.1298C158.77 15.0611 161.608 11.5384 165.734 11.5384C168.527 11.5384 172.755 13.2734 172.755 26.2271C172.755 37.874 169.298 40.8268 165.734 40.8268ZM165.734 9.26685C155.724 9.26685 151.344 17.3383 151.344 26.5635C151.344 37.6377 157.275 43.09 165.734 43.09C175.754 43.09 180.187 35.0186 180.187 25.7933C180.187 15.4031 174.766 9.26685 165.734 9.26685Z" fill="white"/>
<path fill-rule="evenodd" clip-rule="evenodd" d="M193.678 40.7769H190.366C189.889 40.7769 189.889 40.3349 189.889 39.6676V26.7111H193.723C196.88 26.7111 197.853 29.7528 197.853 33.865C197.853 39.5175 195.959 40.7769 193.678 40.7769ZM189.88 11.5386H193.287C195.712 11.5386 197.606 13.4738 197.606 18.7398C197.606 21.9288 196.3 24.6842 193.969 24.6842H189.88V11.5386ZM197.565 25.7936V25.5016C201.207 24.4423 203.882 20.9613 203.882 18.2504C203.882 12.9816 200.234 9.79254 193.337 9.79254H179.782V11.5303H183.23V40.7769H179.782V42.5202H193.628C200.525 42.5202 204.606 38.9892 204.606 33.915C204.606 30.0003 201.643 26.7111 197.565 25.7936ZM226.078 37.5323C225.401 39.7177 224.328 40.7769 222.585 40.7769H215.977C215.977 39.6676 215.977 36.3284 216.022 33.3311C216.022 31.446 216.071 28.0151 216.071 27.4868H224.48V24.7759H216.071V11.5386H221.218C223.021 11.5386 223.798 12.2142 224.336 13.8991L226.034 19.6517C226.76 19.5599 227.39 19.5599 228.167 19.4598V9.79248H206.406V11.5385H209.463V40.7769H205.288V42.5201H229.235L229.576 32.4135L227.443 32.0298L226.078 37.5323ZM305.279 40.7769C304.505 40.7769 304.161 40.2431 304.161 39.3173V11.5386C311.11 11.5386 314.85 15.8871 314.85 26.13C314.85 36.7121 311.887 40.7769 305.279 40.7769ZM248.286 28.4572L251.737 16.4126L255.185 28.4572H248.286ZM306.638 9.79254H284.192V11.5386C287.643 11.5386 288.223 12.4561 288.223 14.2412V30.5341C284.048 23.6221 279.917 16.7546 275.783 9.79254H267.186V11.344C268.595 11.7805 269.614 12.8398 270.44 13.8991V37.5323C270.44 40.3349 268.978 40.7269 267.477 40.7769H265.874L256.356 9.79254H251.837C250.616 14.7249 243.425 37.004 243.425 37.004C242.743 39.0837 241.622 40.8186 239.489 40.8186H239.436V42.5147H249.892V40.7769H249.601C246.729 40.535 245.85 40.485 245.85 38.4081C245.85 37.7741 245.9 37.054 246.097 36.0865L247.797 30.1865H255.723L258.78 40.7769H255.185V42.5202H277.049V40.827C273.018 40.7269 272.771 39.6092 272.771 37.5879V17.3385C277.825 25.7435 282.786 34.1569 287.882 42.5202H290.459V14.2412C290.459 12.1142 291.766 11.5803 294.149 11.5386H297.503V40.7769H293.857V42.5202H307.074C316.695 42.5202 322.276 34.9271 322.276 25.7435C322.288 16.4126 315.918 9.79254 306.638 9.79254ZM375.43 28.4572L378.878 16.4126L382.335 28.4572H375.43ZM395.107 11.5386H398.17V40.7769H393.024L383.495 9.79254H378.981C377.769 14.7249 370.572 37.004 370.572 37.004C369.948 38.9197 368.933 40.535 367.107 40.7769H364.552L362.802 11.5386H366.541V9.79254H356.288L350.074 27.1977C348.032 21.4451 345.89 15.5507 343.951 9.79254H333.11V11.5386C336.464 11.5386 336.713 12.0724 336.713 15.3032V15.6452C336.422 21.4451 335.792 32.2218 335.348 38.3135C335.251 39.6676 334.136 40.7769 331.223 40.9187V42.5202H342.73V40.827C338.608 40.7269 337.975 39.3312 337.975 38.3135C337.975 37.7297 338.12 33.4813 338.267 29.4164C338.464 23.7667 338.652 20.0938 338.847 14.3412V14.5831C341.621 22.4071 344.584 30.3839 347.35 38.2134L348.418 37.7297C351.142 30.3339 353.813 23.2328 356.579 15.8871L357.842 40.7769H354.64V42.5202H377.033V40.7769H376.742C373.874 40.535 373.003 40.485 373.003 38.4081C373.003 37.7741 373.055 37.054 373.244 36.0865L374.95 30.1865H382.862L385.93 40.7769H382.327V42.5202H408.271V40.7769H405.264V11.5386H408.279V9.79254H395.107V11.5386ZM428.248 37.4878C427.419 39.9512 426.486 40.7769 424.603 40.7769H419.787C419.984 40.485 419.984 37.2542 419.984 11.5386H423.629V9.79254H410.022V11.5386H413.376V40.7769H409.875V42.5202H431.397L432.132 32.08C431.397 31.9715 430.817 31.9715 430.09 31.8798L428.248 37.4878ZM63.6596 11.5386H67.0164V9.79254H53.7557V11.5386H57.0543V24.9177H47.0977V11.5386H50.4461V9.79254H10.0732L9.73193 19.56C10.5087 19.6016 11.1412 19.7519 11.918 19.8019L13.6241 13.6156C14.1124 11.8278 14.6922 11.5386 16.6397 11.5386H20.0353V40.7769H15.469V42.5202H31.2625V40.7769H26.6435V11.5386H30.1445C32.2279 11.5386 32.5692 11.964 33.0546 13.6156L34.7525 19.8019C35.532 19.7519 36.1617 19.6017 36.9385 19.56V11.5386H40.4923V40.7769H36.7527V42.5202H50.4461V40.7769H47.0977V27.4395H57.0543V40.7769H53.7557V42.5202H67.0358V40.7769H63.6596V11.5386Z" fill="white"/>
<path fill-rule="evenodd" clip-rule="evenodd" d="M88.2973 37.5323C87.6148 39.7176 86.5467 40.7769 84.799 40.7769H78.1908C78.1908 39.6676 78.1908 36.3284 78.2434 33.3311C78.2434 31.446 78.2933 28.0151 78.2933 27.4868H86.6936V24.7759H78.2934V11.5386H83.4395C85.2344 11.5386 86.0112 12.2142 86.5466 13.8991L88.2472 19.6517C88.9824 19.5599 89.6121 19.5599 90.3889 19.4598V9.79248H68.6197V11.5385H71.6769V40.7769H68.5975V42.5201H91.457L91.7982 32.4135L89.6565 32.0298L88.2973 37.5323Z" fill="white"/>
</g>
<defs>
<clipPath id="clip0_9_710">
<rect width="459" height="52.4571" fill="white"/>
</clipPath>
</defs>
</svg>
