<svg width="308" height="28" viewBox="0 0 308 28" fill="none" xmlns="http://www.w3.org/2000/svg">
<path fill-rule="evenodd" clip-rule="evenodd" d="M0 0.5551H11.0783C17.2401 0.5551 20.4621 3.74094 20.4621 7.65331C20.4621 10.3541 18.9391 12.1884 16.8272 13.1586V13.2285C19.528 14.1987 21.0509 16.3444 21.0509 19.079C21.0509 22.9914 18.0388 26.4187 11.5295 26.4187H0V0.5551ZM10.733 10.8031C12.5674 10.8031 13.4 9.86896 13.4 8.82882C13.4 7.78868 12.5696 6.82074 10.733 6.82074H7.47951V10.8031H10.733ZM10.8368 20.1508C12.775 20.1508 13.7113 19.2167 13.7113 18.005C13.7113 16.7934 12.7411 15.8593 10.8729 15.8593H7.47951V20.153H10.8368V20.1508ZM22.6416 15.8932V0.5551H30.1888V15.8232C30.1888 18.6977 31.608 20.2207 34.0312 20.2207C36.4545 20.2207 37.9774 18.6977 37.9774 15.7894V0.5551H45.5607V15.8932C45.5607 22.4025 41.1994 27.0775 34.0312 27.0775C26.8631 27.0775 22.6394 22.4025 22.6394 15.8932H22.6416ZM64.7773 1.80056V8.44751C63.1506 7.30584 60.3799 6.50938 58.1304 6.50938C56.0885 6.50938 55.0483 7.16821 55.0483 8.03236C55.0483 8.89651 56.19 9.34776 58.2342 10.0743C61.6975 11.2859 66.4041 12.9127 66.4041 18.4179C66.4041 23.3343 62.6993 26.9692 56.19 26.9692C52.8327 26.9692 49.7506 25.999 47.8463 24.7197V17.7253C49.7168 19.2482 52.5552 20.4599 55.2897 20.4599C57.6092 20.4599 58.6832 19.5935 58.6832 18.6255C58.6832 17.3801 56.9165 16.825 54.8046 16.0624C52.034 15.0584 47.6388 13.2579 47.6388 8.23768C47.6388 3.70259 51.2059 -0.00219727 57.5753 -0.00219727C60.3799 -0.00219727 62.9069 0.72432 64.7773 1.7983V1.80056ZM68.3422 0.5551H75.8894V26.4187H68.3422V0.5551ZM102.723 26.4187H95.5212L86.2073 12.5359H86.1735V26.4187H79.0076V0.5551H86.2096L95.5234 14.1965H95.5573V0.5551H102.723V26.4187ZM105.839 0.5551H123.704V7.272H113.386V10.3879H122.664V16.4821H113.386V19.7018H123.704V26.4187H105.839V0.5551ZM142.643 1.80056V8.44751C141.016 7.30584 138.246 6.50938 135.996 6.50938C133.954 6.50938 132.914 7.16821 132.914 8.03236C132.914 8.89651 134.056 9.34776 136.1 10.0743C139.563 11.2859 144.27 12.9127 144.27 18.4179C144.27 23.3343 140.565 26.9692 134.056 26.9692C130.699 26.9692 127.617 25.999 125.712 24.7197V17.7253C127.583 19.2482 130.421 20.4599 133.156 20.4599C135.475 20.4599 136.549 19.5935 136.549 18.6255C136.549 17.3801 134.782 16.825 132.671 16.0624C129.9 15.0584 125.505 13.2579 125.505 8.23768C125.505 3.70259 129.072 -0.00219727 135.441 -0.00219727C138.246 -0.00219727 140.773 0.72432 142.643 1.7983V1.80056ZM162.62 1.80056V8.44751C160.993 7.30584 158.223 6.50938 155.973 6.50938C153.931 6.50938 152.891 7.16821 152.891 8.03236C152.891 8.89651 154.033 9.34776 156.077 10.0743C159.54 11.2859 164.247 12.9127 164.247 18.4179C164.247 23.3343 160.542 26.9692 154.033 26.9692C150.676 26.9692 147.594 25.999 145.689 24.7197V17.7253C147.56 19.2482 150.398 20.4599 153.133 20.4599C155.452 20.4599 156.526 19.5935 156.526 18.6255C156.526 17.3801 154.759 16.825 152.648 16.0624C149.877 15.0584 145.482 13.2579 145.482 8.23768C145.482 3.70259 149.049 -0.00219727 155.418 -0.00219727C158.223 -0.00219727 160.75 0.72432 162.62 1.7983V1.80056ZM172.992 26.4683H180.539V0.606994H172.992V26.4705V26.4683ZM207.369 0.606994H200.203V14.2484H200.169L190.855 0.606994H183.653V26.4705H190.819V12.5878H190.853L200.167 26.4705H207.369V0.606994ZM219.516 0.0519531C213.145 0.0519531 209.58 3.75674 209.58 8.29183C209.58 13.312 213.977 15.1125 216.746 16.1166C218.858 16.8792 220.624 17.432 220.624 18.6797C220.624 19.6499 219.55 20.514 217.231 20.514C214.496 20.514 211.656 19.3024 209.787 17.7794V24.7738C211.692 26.0554 214.774 27.0233 218.131 27.0233C224.64 27.0233 228.345 23.3885 228.345 18.4721C228.345 12.9668 223.636 11.34 220.175 10.1284C218.133 9.40191 216.989 8.98676 216.989 8.08651C216.989 7.18626 218.027 6.56353 220.071 6.56353C222.321 6.56353 225.092 7.35999 226.718 8.50166V1.85245C224.848 0.77847 222.321 0.0519531 219.516 0.0519531ZM230.107 26.4683H237.655V0.606994H230.107V26.4705V26.4683ZM248.318 19.6476H249.773C253.685 19.6476 256.212 17.432 256.212 13.5534C256.212 9.67492 253.685 7.42542 249.773 7.42542H248.318V19.6476ZM263.829 13.5534C263.829 21.3443 257.943 26.4683 249.495 26.4683H240.77V0.606994H249.495C257.943 0.606994 263.829 5.76481 263.829 13.5557V13.5534ZM265.876 26.4683H283.741V19.7514H273.423V16.5317H282.701V10.4375H273.423V7.32163H283.741V0.606994H265.876V26.4705V26.4683ZM295.62 12.8269C297.524 12.8269 299.014 11.9267 299.014 10.1262C299.014 8.32567 297.524 7.42542 295.586 7.42542H293.993V12.8269H295.62ZM307.98 26.4683H299.081L294.165 18.4698H293.991V26.4683H286.444V0.606994H295.654C302.13 0.606994 306.629 3.48147 306.629 9.60949C306.629 12.0327 305.555 15.5638 301.261 17.3643L307.978 26.4705L307.98 26.4683Z" fill="white"/>
</svg>
